<svg width="26" height="26" viewBox="0 0 26 26" fill="none" xmlns="http://www.w3.org/2000/svg">
<g opacity="0.9" filter="url(#filter0_d)">
<path d="M13.002 4.38405C10.4481 4.38405 8.38806 6.44406 8.38806 8.99799C8.38806 11.5519 10.4481 13.6119 13.002 13.6119C15.5559 13.6119 17.616 11.5519 17.616 8.99799C17.616 6.44406 15.5559 4.38405 13.002 4.38405ZM13.002 11.9977C11.3516 11.9977 10.0023 10.6524 10.0023 8.99799C10.0023 7.34356 11.3476 5.99833 13.002 5.99833C14.6564 5.99833 16.0017 7.34356 16.0017 8.99799C16.0017 10.6524 14.6524 11.9977 13.002 11.9977ZM18.8809 4.19531C18.8809 4.79364 18.399 5.2715 17.8047 5.2715C17.2064 5.2715 16.7285 4.78963 16.7285 4.19531C16.7285 3.601 17.2104 3.11913 17.8047 3.11913C18.399 3.11913 18.8809 3.601 18.8809 4.19531ZM21.9368 5.28756C21.8685 3.84596 21.5392 2.56899 20.4831 1.5169C19.431 0.464807 18.154 0.135527 16.7124 0.063246C15.2267 -0.021082 10.7733 -0.021082 9.28756 0.063246C7.84997 0.131511 6.57301 0.460792 5.5169 1.51288C4.46079 2.56498 4.13553 3.84194 4.06325 5.28355C3.97892 6.76933 3.97892 11.2226 4.06325 12.7084C4.13151 14.15 4.46079 15.427 5.5169 16.4791C6.57301 17.5312 7.84596 17.8605 9.28756 17.9327C10.7733 18.0171 15.2267 18.0171 16.7124 17.9327C18.154 17.8645 19.431 17.5352 20.4831 16.4791C21.5352 15.427 21.8645 14.15 21.9368 12.7084C22.0211 11.2226 22.0211 6.77334 21.9368 5.28756ZM20.0173 14.3026C19.7041 15.0897 19.0977 15.696 18.3066 16.0133C17.122 16.4831 14.3111 16.3747 13.002 16.3747C11.6929 16.3747 8.87797 16.4791 7.69738 16.0133C6.91032 15.7001 6.30396 15.0937 5.98673 14.3026C5.5169 13.118 5.62532 10.3071 5.62532 8.99799C5.62532 7.6889 5.52091 4.87395 5.98673 3.69336C6.29994 2.9063 6.9063 2.29994 7.69738 1.98271C8.88199 1.51288 11.6929 1.6213 13.002 1.6213C14.3111 1.6213 17.126 1.5169 18.3066 1.98271C19.0937 2.29593 19.7001 2.90229 20.0173 3.69336C20.4871 4.87797 20.3787 7.6889 20.3787 8.99799C20.3787 10.3071 20.4871 13.122 20.0173 14.3026Z" fill="#FCFCFC"/>
</g>
<defs>
<filter id="filter0_d" x="0" y="0" width="26" height="25.996" filterUnits="userSpaceOnUse" color-interpolation-filters="sRGB">
<feFlood flood-opacity="0" result="BackgroundImageFix"/>
<feColorMatrix in="SourceAlpha" type="matrix" values="0 0 0 0 0 0 0 0 0 0 0 0 0 0 0 0 0 0 127 0"/>
<feOffset dy="4"/>
<feGaussianBlur stdDeviation="2"/>
<feColorMatrix type="matrix" values="0 0 0 0 0 0 0 0 0 0 0 0 0 0 0 0 0 0 0.25 0"/>
<feBlend mode="normal" in2="BackgroundImageFix" result="effect1_dropShadow"/>
<feBlend mode="normal" in="SourceGraphic" in2="effect1_dropShadow" result="shape"/>
</filter>
</defs>
</svg>
