<svg width="35" height="30" viewBox="0 0 35 30" fill="none" xmlns="http://www.w3.org/2000/svg">
<g filter="url(#filter0_d)">
<path d="M30.7637 10.4241L26.1632 3.00036C26.0294 2.80039 25.8147 2.69999 25.6 2.69999C25.3852 2.69999 25.1705 2.80039 25.0368 3.00036L20.4362 10.4241C20.273 10.6679 20.1793 10.9607 20.2038 11.2526C20.4346 14.0231 22.7624 16.1999 25.6 16.1999C28.4375 16.1999 30.7654 14.0231 30.9961 11.2526C31.0206 10.9607 30.927 10.6679 30.7637 10.4241ZM25.6 14.8499C23.8458 14.8499 22.3283 13.7054 21.7702 12.1499H29.4145C28.8484 13.7206 27.3415 14.8499 25.6 14.8499ZM21.7917 10.8L25.6017 4.65073L29.4382 10.8H21.7917ZM26.6125 20.2499H18.175V5.30463C19.1154 5.06121 19.8503 4.32884 20.0996 3.39102L26.3555 1.29768C26.5323 1.23862 26.6276 1.04709 26.5686 0.870746L26.3543 0.230765C26.2952 0.0539998 26.1037 -0.0413436 25.9273 0.0177187L20.0878 1.97141C19.7684 0.836574 18.7369 0 17.5 0C16.0087 0 14.8 1.20867 14.8 2.69999C14.8 3.04635 14.8705 3.37414 14.9915 3.67662L8.64446 5.80033C8.4677 5.8594 8.37235 6.05093 8.43142 6.22727L8.64573 6.86725C8.70479 7.04402 8.89632 7.13936 9.07266 7.0803L15.8416 4.81568C16.1293 5.04181 16.4605 5.20971 16.8254 5.30421V21.2624C16.8254 21.4489 16.9765 21.5999 17.1629 21.5999H26.6129C26.7994 21.5999 26.9504 21.4489 26.9504 21.2624V20.5874C26.95 20.4009 26.7989 20.2499 26.6125 20.2499ZM16.15 2.69999C16.15 1.9558 16.7558 1.34999 17.5 1.34999C18.2442 1.34999 18.85 1.9558 18.85 2.69999C18.85 3.44417 18.2442 4.04998 17.5 4.04998C16.7558 4.04998 16.15 3.44417 16.15 2.69999ZM9.96324 8.40034C9.8295 8.19995 9.61477 8.09996 9.40004 8.09996C9.1853 8.09996 8.97057 8.20037 8.83684 8.40034L4.23631 15.824C4.07304 16.0679 3.97939 16.3607 4.00386 16.6526C4.23462 19.423 6.56252 21.5999 9.40004 21.5999C12.2376 21.5999 14.5655 19.423 14.7962 16.6526C14.8207 16.3607 14.727 16.0679 14.5638 15.824L9.96324 8.40034ZM9.40004 20.2499C7.64589 20.2499 6.12841 19.1054 5.57027 17.5499H13.2146C12.6485 19.1206 11.1415 20.2499 9.40004 20.2499ZM5.59179 16.1999L9.40172 10.0507L13.2382 16.1999H5.59179Z" fill="#F67110"/>
</g>
<defs>
<filter id="filter0_d" x="0" y="0" width="35" height="29.5999" filterUnits="userSpaceOnUse" color-interpolation-filters="sRGB">
<feFlood flood-opacity="0" result="BackgroundImageFix"/>
<feColorMatrix in="SourceAlpha" type="matrix" values="0 0 0 0 0 0 0 0 0 0 0 0 0 0 0 0 0 0 127 0"/>
<feOffset dy="4"/>
<feGaussianBlur stdDeviation="2"/>
<feColorMatrix type="matrix" values="0 0 0 0 0 0 0 0 0 0 0 0 0 0 0 0 0 0 0.25 0"/>
<feBlend mode="normal" in2="BackgroundImageFix" result="effect1_dropShadow"/>
<feBlend mode="normal" in="SourceGraphic" in2="effect1_dropShadow" result="shape"/>
</filter>
</defs>
</svg>
