<svg width="26" height="37" viewBox="0 0 26 37" fill="none" xmlns="http://www.w3.org/2000/svg">
<g filter="url(#filter0_d)">
<path d="M16.6 5.4V18.9H9.4V5.4H16.6ZM19.3 0H6.7C5.20937 0 4 1.20938 4 2.7V26.1C4 27.5906 5.20937 28.8 6.7 28.8H19.3C20.7906 28.8 22 27.5906 22 26.1V2.7C22 1.20938 20.7906 0 19.3 0ZM6.7 27C6.205 27 5.8 26.595 5.8 26.1V2.7C5.8 2.205 6.205 1.8 6.7 1.8H19.3C19.795 1.8 20.2 2.205 20.2 2.7V26.1C20.2 26.595 19.795 27 19.3 27H6.7ZM17.725 3.6H8.275C7.90375 3.6 7.6 3.90375 7.6 4.275V20.025C7.6 20.3963 7.90375 20.7 8.275 20.7H17.725C18.0962 20.7 18.4 20.3963 18.4 20.025V4.275C18.4 3.90375 18.0962 3.6 17.725 3.6ZM15.025 23.4H10.975C10.6037 23.4 10.3 23.7038 10.3 24.075V24.525C10.3 24.8963 10.6037 25.2 10.975 25.2H15.025C15.3962 25.2 15.7 24.8963 15.7 24.525V24.075C15.7 23.7038 15.3962 23.4 15.025 23.4Z" fill="#F61067"/>
<path d="M17.1 5.4V4.9H16.6H9.4H8.9V5.4V18.9V19.4H9.4H16.6H17.1V18.9V5.4ZM6.7 0.5H19.3C20.5145 0.5 21.5 1.48552 21.5 2.7V26.1C21.5 27.3145 20.5145 28.3 19.3 28.3H6.7C5.48552 28.3 4.5 27.3145 4.5 26.1V2.7C4.5 1.48552 5.48552 0.5 6.7 0.5ZM5.3 26.1C5.3 26.8711 5.92886 27.5 6.7 27.5H19.3C20.0711 27.5 20.7 26.8711 20.7 26.1V2.7C20.7 1.92886 20.0711 1.3 19.3 1.3H6.7C5.92886 1.3 5.3 1.92886 5.3 2.7V26.1ZM8.275 4.1H17.725C17.8201 4.1 17.9 4.17989 17.9 4.275V20.025C17.9 20.1201 17.8201 20.2 17.725 20.2H8.275C8.17989 20.2 8.1 20.1201 8.1 20.025V4.275C8.1 4.17989 8.17989 4.1 8.275 4.1ZM10.975 23.9H15.025C15.1201 23.9 15.2 23.9799 15.2 24.075V24.525C15.2 24.6201 15.1201 24.7 15.025 24.7H10.975C10.8799 24.7 10.8 24.6201 10.8 24.525V24.075C10.8 23.9799 10.8799 23.9 10.975 23.9Z" stroke="#F61067"/>
</g>
<defs>
<filter id="filter0_d" x="0" y="0" width="26" height="36.8" filterUnits="userSpaceOnUse" color-interpolation-filters="sRGB">
<feFlood flood-opacity="0" result="BackgroundImageFix"/>
<feColorMatrix in="SourceAlpha" type="matrix" values="0 0 0 0 0 0 0 0 0 0 0 0 0 0 0 0 0 0 127 0"/>
<feOffset dy="4"/>
<feGaussianBlur stdDeviation="2"/>
<feColorMatrix type="matrix" values="0 0 0 0 0 0 0 0 0 0 0 0 0 0 0 0 0 0 0.25 0"/>
<feBlend mode="normal" in2="BackgroundImageFix" result="effect1_dropShadow"/>
<feBlend mode="normal" in="SourceGraphic" in2="effect1_dropShadow" result="shape"/>
</filter>
</defs>
</svg>
