<svg width="26" height="26" viewBox="0 0 26 26" fill="none" xmlns="http://www.w3.org/2000/svg">
<g filter="url(#filter0_d)">
<path d="M13 0C8.03737 0 4 4.03737 4 9C4 13.9626 8.03737 18 13 18C17.9626 18 22 13.9626 22 9C22 4.03737 17.9626 0 13 0ZM18.9505 4.15038C20.0212 5.4585 20.6696 7.12462 20.6865 8.93907C20.433 8.88547 17.8915 8.36996 15.3336 8.69164C15.1248 8.18209 14.9278 7.73383 14.658 7.18146C17.5003 6.021 18.7885 4.36961 18.9505 4.15038ZM18.0959 3.26141C17.9577 3.45836 16.8005 5.01373 14.0669 6.03831C12.8072 3.72386 11.411 1.82254 11.1985 1.53802C13.6364 0.950371 16.2054 1.58411 18.0959 3.26141ZM9.73173 2.05476C9.93441 2.33271 11.3081 4.23639 12.5819 6.50065C8.98596 7.45556 5.8188 7.4418 5.47498 7.43727C5.97347 5.05179 7.58106 3.06918 9.73173 2.05476ZM5.31262 9.01172C5.31262 8.93312 5.31418 8.85487 5.31654 8.77681C5.65288 8.78371 9.37815 8.83172 13.2172 7.68281C13.4372 8.1135 13.6475 8.55069 13.8404 8.98741C11.0606 9.77037 8.53498 12.0186 7.28888 14.1517C6.06107 12.7889 5.31262 10.9862 5.31262 9.01172ZM8.28142 15.0763C9.08442 13.4348 11.2637 11.3158 14.3629 10.2585C15.4422 13.0632 15.8885 15.4137 16.0028 16.0882C13.531 17.141 10.5587 16.8522 8.28142 15.0763ZM17.2952 15.3844C17.2164 14.9167 16.8073 12.6663 15.8018 9.90334C18.2107 9.51772 20.3272 10.149 20.5902 10.2319C20.2475 12.3709 19.0198 14.2182 17.2952 15.3844Z" fill="#F61067"/>
</g>
<defs>
<filter id="filter0_d" x="0" y="0" width="26" height="26" filterUnits="userSpaceOnUse" color-interpolation-filters="sRGB">
<feFlood flood-opacity="0" result="BackgroundImageFix"/>
<feColorMatrix in="SourceAlpha" type="matrix" values="0 0 0 0 0 0 0 0 0 0 0 0 0 0 0 0 0 0 127 0"/>
<feOffset dy="4"/>
<feGaussianBlur stdDeviation="2"/>
<feColorMatrix type="matrix" values="0 0 0 0 0 0 0 0 0 0 0 0 0 0 0 0 0 0 0.25 0"/>
<feBlend mode="normal" in2="BackgroundImageFix" result="effect1_dropShadow"/>
<feBlend mode="normal" in="SourceGraphic" in2="effect1_dropShadow" result="shape"/>
</filter>
</defs>
</svg>
