<svg width="35" height="37" viewBox="0 0 35 37" fill="none" xmlns="http://www.w3.org/2000/svg">
<g filter="url(#filter0_d)">
<path d="M30.7308 17.5624C29.9995 14.5022 27.9575 12.5446 27.6987 9.81064C27.5075 7.85864 28.8913 6.58168 28.7507 4.21903C28.6044 1.78324 26.8999 0.00562537 24.7004 0C22.5009 0.00562537 20.802 1.78324 20.6558 4.21903C20.5151 6.58168 21.8934 7.86426 21.7077 9.81064C21.449 12.5446 19.4013 14.5078 18.6757 17.5624C17.9725 20.5045 18.6982 25.4323 20.262 28.3237L20.5151 28.7963H28.8969L29.1501 28.3237C30.7083 25.4323 31.434 20.5045 30.7308 17.5624V17.5624ZM26.9506 4.32591C27.0462 5.93476 26.0449 7.09921 25.8986 9.00059H23.5022C23.356 7.09359 22.349 5.94039 22.4503 4.32591C22.6528 0.945062 26.7481 0.945062 26.9506 4.32591ZM27.8 26.9961H21.6008C20.4195 24.4535 19.857 20.3188 20.4195 17.9787C21.0214 15.4585 22.7765 13.6471 23.3503 10.7951H26.0505C26.6243 13.6471 28.3794 15.4585 28.9813 17.9787C29.5382 20.3245 28.9757 24.4535 27.8 26.9961ZM13.2978 9.81627C13.1122 7.86426 14.4904 6.58731 14.3497 4.22465C14.2035 1.78324 12.499 0.0112507 10.2995 0.00562537C8.09996 0.00562537 6.4011 1.78324 6.24921 4.22465C6.10296 6.58731 7.4868 7.86426 7.30116 9.81627C7.04239 12.5558 4.99476 14.5134 4.26909 17.568C3.56591 20.5101 4.29159 25.4435 5.85544 28.335L6.10858 28.8075H14.4904L14.7435 28.335C16.3074 25.4435 17.033 20.5157 16.3299 17.568C15.6042 14.5134 13.5566 12.5502 13.2978 9.81627V9.81627ZM12.5496 4.33153C12.6453 5.94601 11.6439 7.09359 11.4977 9.00059H9.10128C8.95502 7.09359 7.94808 5.94601 8.04933 4.33153C8.25185 0.950687 12.3471 0.950687 12.5496 4.33153ZM13.3991 27.0018H7.1999C6.01857 24.4591 5.45604 20.3245 6.01857 17.9843C6.62049 15.4641 8.38123 13.6528 8.94939 10.8007H11.6496C12.2234 13.6528 13.9785 15.4641 14.5804 17.9843C15.1429 20.3245 14.5804 24.4591 13.3991 27.0018Z" fill="#00F0B5"/>
</g>
<defs>
<filter id="filter0_d" x="0" y="0" width="35" height="36.8075" filterUnits="userSpaceOnUse" color-interpolation-filters="sRGB">
<feFlood flood-opacity="0" result="BackgroundImageFix"/>
<feColorMatrix in="SourceAlpha" type="matrix" values="0 0 0 0 0 0 0 0 0 0 0 0 0 0 0 0 0 0 127 0"/>
<feOffset dy="4"/>
<feGaussianBlur stdDeviation="2"/>
<feColorMatrix type="matrix" values="0 0 0 0 0 0 0 0 0 0 0 0 0 0 0 0 0 0 0.25 0"/>
<feBlend mode="normal" in2="BackgroundImageFix" result="effect1_dropShadow"/>
<feBlend mode="normal" in="SourceGraphic" in2="effect1_dropShadow" result="shape"/>
</filter>
</defs>
</svg>
