<svg width="35" height="34" viewBox="0 0 35 34" fill="none" xmlns="http://www.w3.org/2000/svg">
<g filter="url(#filter0_d)">
<path d="M29.2951 11.4293C30.1642 8.72636 28.2985 6.80559 27.2572 6.20256C27.3897 4.3334 25.9737 2.51388 23.9477 2.26224C23.3546 0.904798 22.0066 0 20.4889 0C19.2684 0 18.1929 0.588143 17.5 1.48401C16.8071 0.588143 15.7316 0 14.5111 0C12.9934 0 11.6454 0.904798 11.0518 2.26224C9.02577 2.51388 7.60976 4.3334 7.74228 6.20256C6.70099 6.80608 4.83581 8.72636 5.70438 11.4293C4.63976 12.28 4 13.5715 4 14.9393C4 16.5638 4.8641 18.0354 6.24636 18.837C6.1332 21.2283 8.06737 23.2389 10.4621 23.1773C11.1689 24.5362 12.576 25.4118 14.1374 25.4118C15.5222 25.4118 16.7436 24.7268 17.5 23.6865C18.2564 24.7268 19.4778 25.4118 20.8626 25.4118C22.424 25.4118 23.8311 24.5362 24.5379 23.1773C26.9326 23.2389 28.8663 21.2278 28.7536 18.837C30.1359 18.0354 31 16.5638 31 14.9393C31 13.5715 30.3602 12.28 29.2951 11.4293ZM16.7029 6.85274C16.7029 8.14765 15.8065 9.22914 14.601 9.53487C14.4288 9.57855 14.3116 9.73787 14.3116 9.91506V10.7181C14.3116 10.9697 14.5444 11.1603 14.7921 11.1097C15.5083 10.9638 16.1589 10.6427 16.7029 10.197V21.2675C16.7029 22.6765 15.5524 23.8235 14.1374 23.8235C12.5546 23.8235 11.9422 22.741 11.5019 21.4312C10.6934 21.5672 10.5942 21.5901 10.4011 21.5901C8.98607 21.5901 7.83559 20.4431 7.83559 19.034C7.83559 18.7258 7.87827 18.5804 8.01774 17.894C6.75509 17.3728 5.59369 16.6924 5.59369 14.9393C5.59369 13.2588 6.73574 12.6091 7.72342 12.0438C7.09805 10.7677 7.08812 10.5945 7.08812 10.1002C7.08812 8.41715 8.17507 7.695 9.53847 7.13763C9.4139 6.59664 9.33002 6.31324 9.33002 6.00551C9.33002 4.80739 10.3028 3.83162 11.5873 3.83162H11.6076L12.2395 3.84502C12.5328 2.70596 12.9854 1.58824 14.5111 1.58824C15.7192 1.58824 16.7029 2.56748 16.7029 3.77206V6.85274ZM26.9823 17.894C27.1217 18.5804 27.1644 18.7258 27.1644 19.034C27.1644 20.4431 26.0139 21.5901 24.5989 21.5901C24.4063 21.5901 24.3071 21.5672 23.4981 21.4312C23.0578 22.741 22.4454 23.8235 20.8626 23.8235C19.4476 23.8235 18.2971 22.6765 18.2971 21.2675V10.197C18.8411 10.6427 19.4917 10.9638 20.2079 11.1097C20.4556 11.1603 20.6884 10.9697 20.6884 10.7181V9.91506C20.6884 9.73787 20.5712 9.57855 20.399 9.53487C19.1935 9.22914 18.2971 8.14765 18.2971 6.85274V3.77206C18.2971 2.56748 19.2808 1.58824 20.4889 1.58824C22.0146 1.58824 22.4672 2.70596 22.76 3.84502L23.3919 3.83162H23.4122C24.6967 3.83162 25.6695 4.80739 25.6695 6.00551C25.6695 6.31324 25.5851 6.59713 25.461 7.13763C26.8239 7.6945 27.9114 8.41715 27.9114 10.1002C27.9114 10.5945 27.9015 10.7677 27.2761 12.0438C28.2638 12.6091 29.4058 13.2588 29.4058 14.9393C29.4058 16.6928 28.2449 17.3733 26.9823 17.894Z" fill="#F61067"/>
</g>
<defs>
<filter id="filter0_d" x="0" y="0" width="35" height="33.4118" filterUnits="userSpaceOnUse" color-interpolation-filters="sRGB">
<feFlood flood-opacity="0" result="BackgroundImageFix"/>
<feColorMatrix in="SourceAlpha" type="matrix" values="0 0 0 0 0 0 0 0 0 0 0 0 0 0 0 0 0 0 127 0"/>
<feOffset dy="4"/>
<feGaussianBlur stdDeviation="2"/>
<feColorMatrix type="matrix" values="0 0 0 0 0 0 0 0 0 0 0 0 0 0 0 0 0 0 0.25 0"/>
<feBlend mode="normal" in2="BackgroundImageFix" result="effect1_dropShadow"/>
<feBlend mode="normal" in="SourceGraphic" in2="effect1_dropShadow" result="shape"/>
</filter>
</defs>
</svg>
